P3
4 8
15
0 0 0   0 0 0   0 0 0   15 0 15   
0 0 0   0 15 7   0 0 0   0 0 0   
0 0 0   0 0 0   0 15 7   0 0 0   
15 0 15   0 0 0   0 0 0   0 0 0   
0 0 0   0 0 0   0 0 0   15 0 15   
0 0 0   0 15 7   0 0 0   0 0 0   
0 0 0   0 0 0   0 15 7   0 0 0   
15 0 15   0 0 0   0 0 0   0 0 0   
