P3
8 4
15
0 0 0   0 0 0   0 0 0   15 0 15   0 0 0   0 0 0   0 0 0   15 0 15   
0 0 0   0 15 7   0 0 0   0 0 0   0 0 0   0 15 7   0 0 0   0 0 0   
0 0 0   0 0 0   0 15 7   0 0 0   0 0 0   0 0 0   0 15 7   0 0 0   
15 0 15   0 0 0   0 0 0   0 0 0   15 0 15   0 0 0   0 0 0   0 0 0   
