P3
4 4
15
15 15 15   0 0 0   0 0 0   8 8 8   
0 0 0   8 8 8   0 0 0   0 0 0   
0 0 0   0 0 0   8 8 8   0 0 0   
8 8 8   15 15 15   0 0 0   8 8 8   
