P3
4 4
15
15 15 15   0 0 0   0 0 0   15 15 15   
0 0 0   15 15 15   0 0 0   0 0 0   
0 0 0   0 0 0   15 15 15   0 0 0   
15 15 15   15 15 15   0 0 0   15 15 15   
