P3
4 4
15
0 0 0   15 15 15   15 15 15   0 15 0   
15 15 15   15 0 8   15 15 15   15 15 15   
15 15 15   15 15 15   15 0 8   15 15 15   
0 15 0   0 0 0   15 15 15   1 1 1   
