P3
4 4
15
15 0 15   0 0 0   0 0 0   15 15 15   
15 15 15   0 0 0   0 15 7   0 0 0   
0 0 0   0 15 7   0 0 0   0 0 0   
14 14 14   0 0 0   0 0 0   15 0 15   
